# xmcd
#
# Track frame offsets:
# 150
# 18946
# 30006
# 41566
# 54352
# 66596
# 82462
# 95432
# 113069
# 126172
# 141275
# 163653
# 175741
# 191468
# 206108
# 220264
# 240302
# 253855
# 267997
# 281903
# 296509
# 310176
#
# Disc length: 4320 seconds
#
#
# Revision: 0
# Processed by: cddbd v1.5.1PL2 Copyright (c) Steve Scherf et al.
# Submitted via: FreeRIP 2.942 
#
DISCID=4810de16
DTITLE=Raio da Silibrina - Valeu Boi, Valeu Raio
DYEAR=0098
DGENRE=Country
TTITLE0=Arbetura
TTITLE1=Festa de Vaqueiro
TTITLE2=Vaqueiro Pra Ser Bom
TTITLE3=Levada da Boiada
TTITLE4=Vaqueiro Nordestino
TTITLE5=Piriri
TTITLE6=Candieiro
TTITLE7=Pout-Pourrit
TTITLE8=Vem Chamegar
TTITLE9=Quem Quer Pode Falar - Quatro Poderes - Tempo da Vovó
TTITLE10=Mundo Animal - Onde - Cadê a Ordem
TTITLE11=Quando Te Vejo
TTITLE12=Acabei de Saber
TTITLE13=Te Amo Demais
TTITLE14=Seu Brinquedo
TTITLE15=Deixe Acontecer
TTITLE16=Sempre Que Te Vejo
TTITLE17=Você é Lindo
TTITLE18=Vem Ficar Comigo
TTITLE19=Não Quero Saber de Você - Te Amo, Te Amo
TTITLE20=Noite, Noite, Noite - Amor Proibido
TTITLE21=Ai, Ai, Amor
EXTD=
EXTT0=
EXTT1=
EXTT2=
EXTT3=
EXTT4=
EXTT5=
EXTT6=
EXTT7=
EXTT8=
EXTT9=
EXTT10=
EXTT11=
EXTT12=
EXTT13=
EXTT14=
EXTT15=
EXTT16=
EXTT17=
EXTT18=
EXTT19=
EXTT20=
EXTT21=
PLAYORDER=
